<svg width="24.000000000000004" height="24.000000000000004" xmlns="http://www.w3.org/2000/svg">

 <g>
  <title>background</title>
  <rect fill="none" id="canvas_background" height="402" width="582" y="-1" x="-1"/>
 </g>
 <g>
  <title>Layer 1</title>
  <circle id="svg_1" r="11" fill="#8C9EFF" cy="11.9975" cx="12"/>
  <path id="svg_2" fill="#FFFFFF" d="m16.775,8.4375c0,0 -1.3612,-1.0652 -2.9688,-1.1875l-0.1449,0.2897c1.4535,0.3557 2.1203,0.8654 2.8167,1.4915c-1.2009,-0.613 -2.3866,-1.1875 -4.4531,-1.1875s-3.2523,0.5745 -4.4531,1.1875c0.6965,-0.6261 1.4897,-1.192 2.8167,-1.4915l-0.1449,-0.2897c-1.6864,0.1594 -2.9686,1.1875 -2.9686,1.1875s-1.5203,2.2043 -1.7813,6.5313c1.5325,1.7672 3.8594,1.7812 3.8594,1.7812l0.4866,-0.6487c-0.8259,-0.2871 -1.7587,-0.7998 -2.5647,-1.7263c0.9613,0.7273 2.4121,1.4844 4.75,1.4844s3.7887,-0.757 4.75,-1.4844c-0.806,0.9265 -1.7388,1.4393 -2.5647,1.7263l0.4866,0.6487c0,0 2.3269,-0.014 3.8594,-1.7813c-0.261,-4.3269 -1.7813,-6.5312 -1.7813,-6.5312zm-6.6797,5.3438c-0.5739,0 -1.0391,-0.5317 -1.0391,-1.1875s0.4652,-1.1875 1.0391,-1.1875c0.5739,0 1.0391,0.5317 1.0391,1.1875s-0.4652,1.1875 -1.0391,1.1875zm3.8594,0c-0.5739,0 -1.0391,-0.5317 -1.0391,-1.1875s0.4652,-1.1875 1.0391,-1.1875c0.5739,0 1.0391,0.5317 1.0391,1.1875s-0.4653,1.1875 -1.0391,1.1875z"/>
  <path id="svg_3" opacity="0.1" fill="#231F20" d="m4.2218,19.7782c1.9906,1.9906 4.7406,3.2218 7.7782,3.2218c6.0751,0 11,-4.9249 11,-11c0,-3.0376 -1.2312,-5.7876 -3.2218,-7.7782l-15.5564,15.5564z"/>
 </g>
</svg>