<svg width="24" height="24" xmlns="http://www.w3.org/2000/svg">
 <defs>
  <linearGradient y2="-Infinity" y1="Infinity" x2="Infinity" x1="Infinity" id="SVGID_1_">
   <stop stop-color="#1BA8E1" offset="0"/>
   <stop stop-color="#061D32" offset="1"/>
  </linearGradient>
  <linearGradient y2="Infinity" y1="Infinity" x2="Infinity" x1="Infinity" id="SVGID_2_">
   <stop stop-color="#FFFFFF" stop-opacity="0.2" offset="0"/>
   <stop stop-color="#FFFFFF" stop-opacity="0" offset="1"/>
  </linearGradient>
 </defs>
 <g>
  <title>background</title>
  <rect fill="none" id="canvas_background" height="402" width="582" y="-1" x="-1"/>
 </g>
 <g>
  <title>Layer 1</title>
  <path id="svg_2" fill="url(#SVGID_1_)" d="m12,0c-6.6167,0 -12,5.38281 -12,12s5.3833,12 12,12s12,-5.38281 12,-12s-5.3833,-12 -12,-12z"/>
  <circle id="svg_3" r="1.5" fill="#FFFFFF" cy="9.5" cx="15.5"/>
  <path id="svg_4" fill="#FFFFFF" d="m15.5,5c-2.48145,0 -4.5,2.01855 -4.5,4.5c0,0.12793 0.01172,0.25195 0.03125,0.40527l-2.41412,3.15717c-0.20258,-0.03174 -0.40583,-0.06244 -0.61713,-0.06244c-0.94104,0 -1.79578,0.34021 -2.47968,0.88605l-5.50378,-2.52154c-0.01074,0.20795 -0.01654,0.42492 -0.01654,0.63549c0,1.34381 0.21605,2.62622 0.62535,3.8335l3.41969,1.61212c0.22492,1.9942 1.90198,3.55438 3.95496,3.55438c2.20526,0 3.99939,-1.7934 3.99988,-3.99902l3.64709,-3.00293c2.41358,-0.07813 4.35303,-2.06641 4.35303,-4.49805c0,-2.48145 -2.01855,-4.5 -4.5,-4.5zm-7.5,14c-0.42249,0 -0.81335,-0.13336 -1.13654,-0.35779c0.06586,0.00678 0.13099,0.02185 0.19709,0.02185c0.26953,0 0.53955,-0.05664 0.79199,-0.16992c0.51709,-0.23144 0.90625,-0.67578 1.06738,-1.21973c0.26398,-0.89068 -0.15515,-1.8457 -0.97253,-2.2691c0.01788,-0.00049 0.0346,-0.00531 0.05261,-0.00531c1.10303,0 2,0.89746 2,2s-0.89697,2 -2,2zm7.5,-7c-1.37842,0 -2.5,-1.12109 -2.5,-2.5s1.12158,-2.5 2.5,-2.5s2.5,1.12109 2.5,2.5s-1.12158,2.5 -2.5,2.5z"/>
  <path id="svg_5" opacity="0.2" fill="#FFFFFF" d="m12,0.25c5.32855,0 9.84406,3.44226 11.47058,8.22076c-1.50732,-4.90478 -6.07178,-8.47076 -11.47058,-8.47076s-9.9632,3.56598 -11.47058,8.47064c1.62652,-4.77838 6.14197,-8.22064 11.47058,-8.22064z"/>
  <path id="svg_6" opacity="0.1" fill="#010101" d="m12,23.75c-4.74509,0 -8.83745,-2.69861 -10.82535,-6.66401c-0.24444,-0.48758 -0.45705,-0.99432 -0.63515,-1.51756c0.16081,0.52329 0.35631,1.0309 0.58382,1.5202c1.90492,4.09699 6.05387,6.91137 10.87668,6.91137c4.67584,0 8.72143,-2.65589 10.70037,-6.55357c0.30598,-0.60264 0.56255,-1.23497 0.76441,-1.89176c-0.12862,0.37783 -0.27525,0.74715 -0.4389,1.10694c-1.90591,4.19044 -6.11861,7.08839 -11.02588,7.08839z"/>
  <path id="svg_7" fill="url(#SVGID_2_)" d="m12,0c-6.6167,0 -12,5.38281 -12,12s5.3833,12 12,12s12,-5.38281 12,-12s-5.3833,-12 -12,-12z"/>
 </g>
</svg>