<?xml version="1.0" encoding="UTF-8"?> <svg xmlns="http://www.w3.org/2000/svg" id="Layer_1" data-name="Layer 1" viewBox="0 0 52 32"><defs><style>.cls-1{fill:#fff;}.cls-2{fill:#d1d3d4;}.cls-3{fill:#253b80;}.cls-4{fill:#179bd7;}.cls-5{fill:#222d65;}</style></defs><title>PayPal</title><rect class="cls-1" x="0.17" y="0.17" width="51.65" height="31.65" rx="5.33"></rect><path class="cls-2" d="M46.5.35A5.16,5.16,0,0,1,51.65,5.5v21a5.16,5.16,0,0,1-5.15,5.15H5.5A5.16,5.16,0,0,1,.35,26.5V5.5A5.16,5.16,0,0,1,5.5.35h41m0-.35H5.5A5.5,5.5,0,0,0,0,5.5v21A5.5,5.5,0,0,0,5.5,32h41A5.5,5.5,0,0,0,52,26.5V5.5A5.5,5.5,0,0,0,46.5,0Z"></path><path class="cls-3" d="M20.9,13.24H18.62a.32.32,0,0,0-.31.27l-.92,5.83a.19.19,0,0,0,.16.22h1.11a.32.32,0,0,0,.32-.27l.25-1.57a.31.31,0,0,1,.31-.27h.72a2.34,2.34,0,0,0,2.59-2.16,1.78,1.78,0,0,0-.29-1.47A2.13,2.13,0,0,0,20.9,13.24Zm.26,2.13c-.12.82-.75.82-1.35.82h-.34l.24-1.53a.18.18,0,0,1,.18-.16h.16c.41,0,.8,0,1,.24A.73.73,0,0,1,21.16,15.37Zm6.54,0H26.61a.18.18,0,0,0-.18.16l-.05.3-.08-.11A1.57,1.57,0,0,0,25,15.24a2.5,2.5,0,0,0-2.43,2.19A2.06,2.06,0,0,0,23,19.11a1.69,1.69,0,0,0,1.37.55A2.1,2.1,0,0,0,25.87,19l-.05.3a.19.19,0,0,0,.16.22h1a.31.31,0,0,0,.31-.27l.59-3.73a.18.18,0,0,0-.16-.21Zm-1.52,2.12a1.21,1.21,0,0,1-1.23,1,.9.9,0,0,1-.73-.3.92.92,0,0,1-.17-.76,1.22,1.22,0,0,1,1.22-1.05.91.91,0,0,1,.73.3A.94.94,0,0,1,26.18,17.47Zm7.33-2.12h-1.1a.33.33,0,0,0-.26.13l-1.51,2.23L30,15.57a.31.31,0,0,0-.3-.22H28.62a.18.18,0,0,0-.19.18.15.15,0,0,0,0,.07l1.21,3.54-1.14,1.6a.18.18,0,0,0,0,.26.21.21,0,0,0,.11,0h1.09A.31.31,0,0,0,30,20.9l3.64-5.26a.18.18,0,0,0,0-.26.17.17,0,0,0-.1,0Z"></path><path class="cls-4" d="M37.13,13.24H34.86a.32.32,0,0,0-.32.27l-.92,5.83a.2.2,0,0,0,.16.22H35a.22.22,0,0,0,.22-.19l.26-1.65a.31.31,0,0,1,.31-.27h.72a2.33,2.33,0,0,0,2.59-2.16,1.74,1.74,0,0,0-.29-1.47A2.11,2.11,0,0,0,37.13,13.24Zm.27,2.13c-.13.82-.75.82-1.36.82H35.7l.24-1.53a.2.2,0,0,1,.19-.16h.16c.41,0,.79,0,1,.24A.8.8,0,0,1,37.4,15.37Zm6.54,0H42.85a.17.17,0,0,0-.19.16l0,.3-.08-.11a1.54,1.54,0,0,0-1.28-.46,2.51,2.51,0,0,0-2.44,2.19,2.1,2.1,0,0,0,.41,1.68,1.71,1.71,0,0,0,1.37.55A2.1,2.1,0,0,0,42.1,19l-.05.3a.2.2,0,0,0,.16.22h1a.3.3,0,0,0,.31-.27l.59-3.73a.18.18,0,0,0-.16-.21Zm-1.52,2.12a1.22,1.22,0,0,1-1.23,1,.85.85,0,0,1-.91-1.06,1.22,1.22,0,0,1,1.23-1.05.89.89,0,0,1,.72.3A.94.94,0,0,1,42.42,17.47Zm2.8-4.07-.93,5.94a.19.19,0,0,0,.15.22h1a.3.3,0,0,0,.31-.27l.93-5.83a.21.21,0,0,0-.16-.22H45.41A.19.19,0,0,0,45.22,13.4Z"></path><path class="cls-3" d="M7.94,20.7l.17-1.11H5.87l1.29-8.16a.11.11,0,0,1,.11-.09h3.12a2.75,2.75,0,0,1,2.12.65,1.35,1.35,0,0,1,.34.63,2.16,2.16,0,0,1,0,.88v.25l.18.1a1.31,1.31,0,0,1,.35.27,1.26,1.26,0,0,1,.29.65,2.73,2.73,0,0,1,0,.93,3.16,3.16,0,0,1-.39,1.06,2.15,2.15,0,0,1-.6.67,2.67,2.67,0,0,1-.82.37,4,4,0,0,1-1,.12h-.25a.73.73,0,0,0-.47.17.75.75,0,0,0-.25.44l0,.1L9.5,20.57v.07s0,0,0,0l0,0Z"></path><path class="cls-4" d="M13.19,13.55s0,.12,0,.18a3.27,3.27,0,0,1-3.62,2.84H8.62a.45.45,0,0,0-.44.38l-.46,3-.14.85a.23.23,0,0,0,.2.26H9.44a.39.39,0,0,0,.38-.33l0-.09.31-1.94,0-.1a.39.39,0,0,1,.38-.33h.25A2.86,2.86,0,0,0,14,15.76a2.14,2.14,0,0,0-.32-1.87A1.49,1.49,0,0,0,13.19,13.55Z"></path><path class="cls-5" d="M12.76,13.37l-.4-.09a4.41,4.41,0,0,0-.81,0H9.11a.39.39,0,0,0-.39.33L8.2,16.85l0,.1a.46.46,0,0,1,.44-.38h.92a3.27,3.27,0,0,0,3.62-2.84c0-.06,0-.13,0-.18a2.07,2.07,0,0,0-.34-.15Z"></path><path class="cls-3" d="M8.72,13.56a.39.39,0,0,1,.39-.33h2.44a5.13,5.13,0,0,1,.81.06,2.68,2.68,0,0,1,.49.11,1.75,1.75,0,0,1,.34.15,2,2,0,0,0-.42-1.8A3.11,3.11,0,0,0,10.39,11H7.27a.46.46,0,0,0-.45.38l-1.3,8.24a.27.27,0,0,0,.23.31h2l.48-3.07Z"></path></svg> 